<?xml version="1.0" encoding="iso-8859-1"?>
<!-- Generator: Adobe Illustrator 19.0.0, SVG Export Plug-In . SVG Version: 6.00 Build 0)  -->
<svg version="1.1" id="Capa_1" xmlns="http://www.w3.org/2000/svg" xmlns:xlink="http://www.w3.org/1999/xlink" x="0px" y="0px"
	 viewBox="0 0 512.003 512.003" style="enable-background:new 0 0 512.003 512.003;" xml:space="preserve">
<g>
	<g>
		<path style="fill:#FFE100;" d="M408.063,384.554l-76.126-41.523c-9.993-5.453-16.205-15.915-16.205-27.298v-42.667
			c0,0,22.34-26.718,30.865-63.855c7.074-4.565,11.802-12.476,11.802-21.478v-34.133c0-7.509-3.337-14.217-8.533-18.91V85.332
			c0,0,10.138-76.8-93.867-76.8c-103.996,0-93.867,76.8-93.867,76.8v49.357c-5.197,4.693-8.533,11.401-8.533,18.91v34.133
			c0,9.003,4.727,16.913,11.802,21.478c8.525,37.137,30.865,63.855,30.865,63.855v42.667c0,11.383-6.212,21.845-16.205,27.298
			l-76.126,41.523c-21.99,11.998-35.669,35.038-35.669,60.092v58.82h375.467v-58.82
			C443.733,419.592,430.054,396.552,408.063,384.554"/>
		<path style="fill:#FFE100;" d="M472.661,325.308l-57.216-35.866c-8.627-4.702-13.986-13.747-13.986-23.569v-26.94
			c0,0,24.721-23.074,32.085-55.151c6.101-3.942,10.189-10.778,10.189-18.543v-29.483c0-6.485-4.045-12.279-8.533-16.333V76.8
			c0,0-3.729-68.267-85.333-68.267c-17.869,0-31.829,3.388-43.008,8.508c49.331,19.968,43.008,68.292,43.008,68.292v49.348
			c5.197,4.693,8.533,11.409,8.533,18.918v34.133c0,8.994-4.727,16.913-11.802,21.478c-8.525,37.137-30.865,63.855-30.865,63.855
			v42.667c0,11.375,6.212,21.845,16.205,27.298l76.126,41.523c7.774,4.241,14.438,9.916,19.9,16.512h75.503v-23.868
			C503.467,355.567,491.648,335.667,472.661,325.308"/>
	</g>
	<path style="fill:#FFA800;" d="M472.66,325.308l-57.216-35.866c-8.627-4.702-13.986-13.747-13.986-23.569v-26.94
		c0,0,24.721-23.074,32.085-55.151c6.101-3.942,10.189-10.778,10.189-18.543v-29.483c0-6.485-4.045-12.279-8.533-16.333V76.8
		c0,0-3.729-68.267-85.333-68.267c-4.617,0-8.951,0.247-13.065,0.666C406.16,15.838,409.599,76.8,409.599,76.8v42.624
		c4.489,4.053,8.533,9.847,8.533,16.333v29.483c0,7.765-4.087,14.601-10.189,18.543c-7.364,32.077-32.085,55.151-32.085,55.151
		v26.94c0,9.822,2.039,22.4,10.658,27.11l57.216,35.857c18.987,10.359,34.133,26.726,34.133,48.358v23.868h25.6v-23.868
		C503.466,355.567,491.647,335.667,472.66,325.308"/>
	<path style="fill:#FFE100;" d="M103.937,384.554l76.126-41.523c9.993-5.453,16.205-15.915,16.205-27.298v-42.667
		c0,0-22.34-26.718-30.865-63.855c-7.074-4.565-11.802-12.476-11.802-21.478v-34.133c0-7.509,3.337-14.217,8.533-18.91V85.332
		c0,0-6.323-48.324,43.008-68.292c-11.179-5.12-25.139-8.508-43.008-8.508c-81.604,0-85.333,68.267-85.333,68.267v42.624
		c-4.489,4.053-8.533,9.847-8.533,16.333v29.483c0,7.765,4.087,14.601,10.189,18.551c7.364,32.068,32.085,55.142,32.085,55.142
		v26.94c0,9.83-5.359,18.867-13.986,23.569L39.34,325.307c-18.987,10.359-30.805,30.259-30.805,51.891v23.868h75.503
		C89.498,394.47,96.163,388.795,103.937,384.554"/>
	<path style="fill:#FFFFFF;" d="M39.34,325.308l57.216-35.866c8.627-4.702,13.986-13.747,13.986-23.569v-26.94
		c0,0-24.721-23.074-32.085-55.151c-6.101-3.942-10.189-10.778-10.189-18.543v-29.483c0-6.485,4.045-12.279,8.533-16.333V76.8
		c0,0,3.729-68.267,85.333-68.267c4.617,0,8.951,0.247,13.065,0.666C105.84,15.838,102.401,76.8,102.401,76.8v42.624
		c-4.489,4.053-8.533,9.847-8.533,16.333v29.483c0,7.765,4.087,14.601,10.189,18.543c7.364,32.077,32.085,55.151,32.085,55.151
		v26.94c0,9.822-2.039,22.4-10.658,27.11l-57.216,35.857c-18.987,10.359-34.133,26.726-34.133,48.358v23.868h-25.6v-23.868
		C8.534,355.567,20.353,335.667,39.34,325.308"/>
	<g>
		<path d="M76.8,494.935h358.4V444.64c0-21.931-11.964-42.086-31.215-52.599l-76.134-41.523
			c-12.74-6.946-20.651-20.275-20.651-34.782v-42.667c0-1.988,0.708-3.934,1.98-5.47c0.213-0.247,21.171-25.737,29.107-60.297
			c0.495-2.167,1.809-4.053,3.678-5.257c4.949-3.2,7.902-8.55,7.902-14.31v-34.133c0-4.787-2.031-9.25-5.717-12.578
			c-1.792-1.621-2.816-3.925-2.816-6.34V85.335c0-0.375,0.026-0.742,0.077-1.118c0.026-0.205,2.765-24.226-13.85-43.008
			C313.404,25.192,289.323,17.068,256,17.068c-33.442,0-57.574,8.175-71.714,24.311c-16.623,18.961-13.73,42.598-13.696,42.837
			c0.051,0.375,0.077,0.742,0.077,1.118v49.348c0,2.415-1.024,4.719-2.816,6.34c-3.686,3.328-5.717,7.791-5.717,12.578v34.133
			c0,5.76,2.953,11.11,7.902,14.31c1.869,1.203,3.183,3.089,3.678,5.257c7.936,34.56,28.894,60.049,29.107,60.297
			c1.271,1.536,1.98,3.482,1.98,5.47v42.667c0,14.507-7.91,27.836-20.651,34.782l-76.134,41.523
			C88.764,402.553,76.8,422.709,76.8,444.64V494.935z M443.733,512.002H68.267c-4.719,0-8.533-3.823-8.533-8.533V444.64
			c0-28.177,15.369-54.076,40.107-67.575l76.143-41.532c7.253-3.951,11.75-11.537,11.75-19.797v-39.706
			c-5.709-7.484-22.076-30.814-29.892-61.764c-8.055-6.468-12.774-16.154-12.774-26.53v-34.133c0-8.218,3.063-16.188,8.533-22.4
			V85.813c-0.486-4.693-2.355-32.64,17.852-55.689C188.979,10.131,217.421,0.002,256,0.002s67.021,10.129,84.548,30.123
			c20.207,23.049,18.338,50.995,17.852,55.689v45.389c5.47,6.212,8.533,14.182,8.533,22.4v34.133
			c0,10.377-4.719,20.062-12.774,26.53c-7.816,30.95-24.183,54.281-29.892,61.764v39.706c0,8.26,4.497,15.846,11.75,19.797
			l76.134,41.532h0.009c24.738,13.5,40.107,39.398,40.107,67.575v58.829C452.267,508.179,448.452,512.002,443.733,512.002
			L443.733,512.002z"/>
		<path d="M431.841,392.535h63.095v-15.334c0-18.517-10.103-35.533-26.359-44.399c-0.154-0.085-0.299-0.171-0.452-0.265
			l-57.207-35.866c-10.923-5.939-17.997-17.843-17.997-30.797v-26.94c0-2.355,0.99-4.617,2.705-6.229
			c0.23-0.213,22.938-21.811,29.602-50.833c0.495-2.159,1.818-4.053,3.686-5.257c3.934-2.543,6.289-6.793,6.289-11.375v-29.483
			c0-3.072-2.091-6.716-5.726-10.01c-1.792-1.613-2.807-3.917-2.807-6.323V76.802c-0.145-1.963-4.582-59.733-76.8-59.733
			c-7.799,0-14.985,0.666-21.675,2.014c27.332,19.849,32.102,50.637,30.208,66.782v45.338c5.461,6.212,8.533,14.182,8.533,22.4
			v34.133c0,10.377-4.719,20.062-12.783,26.53c-7.817,30.95-24.183,54.281-29.884,61.764v39.706c0,8.26,4.497,15.846,11.75,19.797
			l76.126,41.532C419.485,381.066,426.09,386.255,431.841,392.535 M503.47,409.602h-75.511c-2.543,0-4.958-1.135-6.579-3.098
			c-4.966-5.999-10.812-10.863-17.408-14.464l-76.126-41.523c-12.74-6.946-20.642-20.275-20.642-34.782v-42.667
			c0-1.988,0.708-3.934,1.98-5.47c0.205-0.247,21.163-25.737,29.099-60.297c0.503-2.167,1.818-4.053,3.686-5.257
			c4.949-3.2,7.902-8.55,7.902-14.31v-34.133c0-4.787-2.039-9.25-5.717-12.578c-1.792-1.621-2.816-3.925-2.816-6.34V85.335
			c0-0.367,0.017-0.734,0.068-1.101c0.205-1.681,4.625-42.129-37.743-59.29c-3.166-1.28-5.265-4.309-5.333-7.714
			c-0.077-3.405,1.877-6.537,4.975-7.953c13.449-6.153,29.116-9.276,46.566-9.276c88.644,0,93.807,75.571,93.85,76.331l0.017,39.543
			c5.521,6.025,8.533,12.979,8.533,19.883v29.483c0,9.199-4.13,17.783-11.187,23.586c-7.031,26.539-24.354,46.592-31.095,53.632
			v23.415c0,6.707,3.661,12.868,9.549,16.077l57.446,35.994c21.606,11.895,35.021,34.577,35.021,59.255v23.868
			C512.003,405.779,508.18,409.602,503.47,409.602"/>
		<path d="M17.067,392.535h63.095c5.743-6.281,12.356-11.469,19.678-15.471h0.009l76.134-41.532
			c7.253-3.951,11.75-11.537,11.75-19.797v-39.706c-5.709-7.484-22.076-30.814-29.892-61.764
			c-8.055-6.468-12.774-16.154-12.774-26.53v-34.133c0-8.218,3.063-16.188,8.533-22.4V85.864
			c-1.903-16.145,2.876-46.933,30.208-66.782c-6.69-1.348-13.884-2.014-21.675-2.014c-72.226,0-76.655,57.771-76.817,60.237
			l0.017,42.121c0,2.406-1.015,4.71-2.807,6.323c-3.644,3.294-5.726,6.938-5.726,10.01v29.483c0,4.582,2.347,8.832,6.281,11.375
			c1.869,1.203,3.191,3.098,3.695,5.257c6.656,29.022,29.363,50.62,29.602,50.833c1.715,1.613,2.697,3.874,2.697,6.229v26.94
			c0,12.954-7.066,24.858-18.441,31.061l-56.755,35.601c-16.708,9.131-26.812,26.146-26.812,44.663V392.535z M84.045,409.602H8.533
			c-4.719,0-8.533-3.823-8.533-8.533v-23.868c0-24.764,13.508-47.522,35.26-59.383l56.755-35.601
			c6.332-3.473,9.993-9.634,9.993-16.341v-23.415c-6.741-7.04-24.055-27.093-31.087-53.632
			c-7.066-5.803-11.187-14.387-11.187-23.586v-29.483c0-6.903,3.004-13.85,8.533-19.883V76.802c0.06-1.229,5.214-76.8,93.867-76.8
			c17.451,0,33.118,3.123,46.558,9.276c3.098,1.417,5.06,4.548,4.983,7.953s-2.176,6.434-5.333,7.714
			c-42.718,17.297-37.803,58.863-37.751,59.29c0.051,0.367,0.077,0.734,0.077,1.101v49.348c0,2.415-1.024,4.719-2.816,6.34
			c-3.686,3.328-5.717,7.791-5.717,12.578v34.133c0,5.76,2.953,11.11,7.902,14.31c1.869,1.203,3.183,3.089,3.678,5.257
			c7.936,34.56,28.894,60.049,29.107,60.297c1.271,1.536,1.98,3.482,1.98,5.47v42.667c0,14.507-7.91,27.836-20.651,34.782
			l-76.126,41.523c-6.588,3.601-12.442,8.465-17.408,14.464C89.003,408.467,86.579,409.602,84.045,409.602L84.045,409.602z"/>
	</g>
</g>
<g>
</g>
<g>
</g>
<g>
</g>
<g>
</g>
<g>
</g>
<g>
</g>
<g>
</g>
<g>
</g>
<g>
</g>
<g>
</g>
<g>
</g>
<g>
</g>
<g>
</g>
<g>
</g>
<g>
</g>
</svg>
