<svg id="Layer_1" height="512" viewBox="0 0 128 128" width="512" xmlns="http://www.w3.org/2000/svg" data-name="Layer 1"><path d="m109.167 72.125h-90.334v28.667h90.333c4.326 0 7.833-6.417 7.833-14.333s-3.506-14.334-7.832-14.334z" fill="#f6ebd8"/><path d="m26.67 86.458c0 7.92-3.51 14.33-7.84 14.33s-7.83-6.41-7.83-14.33 3.51-14.33 7.83-14.33 7.84 6.41 7.84 14.33z" fill="#ecd5af"/><path d="m26.67 86.458c0 7.92-3.51 14.33-7.84 14.33-4.16-9.83 0-14.33 0-14.33z" fill="#f6ebd8"/><path d="m109.167 72.125h-45.167l9.667 14.333-9.667 14.334h45.167c4.326 0 7.833-6.417 7.833-14.333s-3.507-14.334-7.833-14.334z" fill="#ecd5af"/><path d="m34.5 25.41v33.826c0 1.582 13.205 4.582 29.5 4.582s29.5-3 29.5-4.582v-33.826z" fill="#00b5bc"/><path d="m64 63.818c16.29 0 29.5-3 29.5-4.582v-33.826h-29.5z" fill="#0b789c"/><path d="m68.628 72.125h-9.256c4.326 0 7.833 6.417 7.833 14.333s-3.507 14.333-7.833 14.333h9.255c4.326 0 7.833-6.417 7.833-14.333s-3.506-14.333-7.832-14.333z" fill="#ff9e21"/><path d="m58 116.125-3.113-4.326-7.113 4.326 6-15.337h10.226z" fill="#ffd322"/><path d="m70 116.125 3.113-4.326 7.113 4.326-6-15.337h-10.226z" fill="#ff9e21"/><path d="m64 10.125-45.532 15.285 45.532 15.284 45.532-15.284z" fill="#5f69e2"/><path d="m105.451 25.029a1.75 1.75 0 0 0 -1.75 1.75v34.784a1.75 1.75 0 0 0 3.5 0v-34.784a1.75 1.75 0 0 0 -1.75-1.75z" fill="#724435"/><path d="m109.532 25.41-45.532-15.285v30.569z" fill="#3440da"/><path d="m109.532 78.458-4.081-3.579-4.081 3.579v-16.895h8.162z" fill="#ff9e21"/><g fill="#500000"><path d="m116.389 75.761a1.75 1.75 0 1 0 -3.1 1.617 20.074 20.074 0 0 1 1.965 9.08c0 7.416-3.206 12.584-6.083 12.584h-8.171a1.75 1.75 0 0 0 0 3.5h8.167c5.374 0 9.583-7.064 9.583-16.084a23.6 23.6 0 0 0 -2.361-10.697z"/><path d="m94.5 99.042h-1a1.75 1.75 0 1 0 0 3.5h1a1.75 1.75 0 1 0 0-3.5z"/><path d="m86.334 99.042h-11.68c2.18-2.924 3.557-7.431 3.557-12.584s-1.377-9.658-3.557-12.583h24.966v4.583a1.75 1.75 0 0 0 2.9 1.315l2.927-2.566 2.927 2.566a1.75 1.75 0 0 0 2.9-1.315v-16.9a1.75 1.75 0 0 0 -1.75-1.75h-2.324v-31.77l2.888-.969a1.75 1.75 0 0 0 0-3.318l-45.531-15.285a1.754 1.754 0 0 0 -1.114 0l-16.213 5.442a1.75 1.75 0 1 0 1.114 3.318l15.656-5.255 40.033 13.438-40.033 13.44-40.033-13.44 11.094-3.724a1.75 1.75 0 0 0 -1.113-3.318l-16.036 5.383a1.75 1.75 0 0 0 0 3.318l14.844 4.983v27.185c0 1.121 0 2.816 10.083 4.607a123.887 123.887 0 0 0 21.161 1.725 123.887 123.887 0 0 0 21.162-1.725c10.083-1.791 10.083-3.486 10.083-4.607v-20.278a1.75 1.75 0 1 0 -3.5 0v19.578c-2.4 1.211-13.192 3.532-27.745 3.532s-25.347-2.321-27.745-3.532v-25.31l27.188 9.127a1.754 1.754 0 0 0 1.114 0l39.143-13.14v30.6h-2.33a1.75 1.75 0 0 0 -1.75 1.75v8.813h-80.786c-.049 0-.095.01-.142.014-5.3.122-9.441 7.131-9.441 16.069 0 8.908 4.109 15.9 9.389 16.064a1.74 1.74 0 0 0 .195.02h42.6l-3.893 9.95-1.235-1.716a1.751 1.751 0 0 0 -2.33-.473l-2.687 1.634 1.915-4.895a1.75 1.75 0 0 0 -3.26-1.275l-3.8 9.72a1.75 1.75 0 0 0 2.539 2.133l5.729-3.484 2.167 3.012a1.75 1.75 0 0 0 1.42.728 1.842 1.842 0 0 0 .219-.014 1.751 1.751 0 0 0 1.411-1.1l4.37-11.171 4.37 11.171a1.751 1.751 0 0 0 1.411 1.1 1.842 1.842 0 0 0 .219.014 1.75 1.75 0 0 0 1.42-.728l2.167-3.012 5.729 3.484a1.75 1.75 0 0 0 2.539-2.133l-5.064-12.945h9.542a1.75 1.75 0 1 0 0-3.5zm16.786-35.729h4.662v11.287l-1.177-1.032a1.748 1.748 0 0 0 -2.308 0l-1.177 1.032zm-28.409 23.145c0 7.416-3.206 12.584-6.083 12.584h-3.228c2.18-2.924 3.557-7.431 3.557-12.584a25.183 25.183 0 0 0 -1.446-8.62 1.75 1.75 0 0 0 -3.283 1.213 21.657 21.657 0 0 1 1.229 7.407c0 7.416-3.206 12.584-6.083 12.584h-34.516c2.183-2.923 3.562-7.431 3.562-12.584s-1.379-9.66-3.561-12.583h43.768c2.873 0 6.084 5.168 6.084 12.583zm-54.971 1.75h5.112c-.394 5.575-2.618 9.593-4.924 10.589-2.162-5.945-.896-9.334-.188-10.589zm-6.99-1.75c0-7.414 3.2-12.58 6.08-12.58 2.647 0 5.565 4.369 6.021 10.83h-6.021a1.751 1.751 0 0 0 -1.285.563c-.172.186-3.614 4.073-1.734 11.944-1.722-2.128-3.061-5.968-3.061-10.757zm63.958 25.479-2.686-1.637a1.75 1.75 0 0 0 -2.33.473l-1.235 1.716-3.893-9.95h6.467z"/><path d="m40.5 19.763a1.762 1.762 0 0 0 .557-.091l.963-.323a1.75 1.75 0 0 0 -1.11-3.319l-.963.323a1.75 1.75 0 0 0 .557 3.409z"/></g></svg>